Coordinates
version=1
nRows=7
nColumns=63
inDegrees=yes

Units are S.I. units (second, meters, Newtons, ...)
If the header above contains a line with 'inDegrees', this indicates whether rotational values are in degrees (yes) or radians (no).

endheader
time	pelvis_tilt	pelvis_list	pelvis_rotation	pelvis_tx	pelvis_ty	pelvis_tz	hip_flexion_r	hip_adduction_r	hip_rotation_r	knee_angle_r	knee_angle_r_beta	ankle_angle_r	subtalar_angle_r	mtp_angle_r	hip_flexion_l	hip_adduction_l	hip_rotation_l	knee_angle_l	knee_angle_l_beta	ankle_angle_l	subtalar_angle_l	mtp_angle_l	L5_S1_Flex_Ext	L5_S1_Lat_Bending	L5_S1_axial_rotation	L4_L5_Flex_Ext	L4_L5_Lat_Bending	L4_L5_axial_rotation	L3_L4_Flex_Ext	L3_L4_Lat_Bending	L3_L4_axial_rotation	L2_L3_Flex_Ext	L2_L3_Lat_Bending	L2_L3_axial_rotation	L1_L2_Flex_Ext	L1_L2_Lat_Bending	L1_L2_axial_rotation	L1_T12_Flex_Ext	L1_T12_Lat_Bending	L1_T12_axial_rotation	Abs_r3	Abs_r2	Abs_r1	Abs_t1	Abs_t2	neck_flexion	neck_bending	neck_rotation	arm_flex_r	arm_add_r	arm_rot_r	elbow_flex_r	pro_sup_r	wrist_flex_r	wrist_dev_r	arm_flex_l	arm_add_l	arm_rot_l	elbow_flex_l	pro_sup_l	wrist_flex_l	wrist_dev_l
      4.76666667	     -3.04303425	    -18.88197163	     90.44170510	      0.27470735	      0.88960840	      0.61151045	     14.36319020	      1.97569069	     -5.17411298	     11.96682094	      0.20886043	     30.79037075	     -6.20287980	      0.00000000	     11.05622061	     -3.33790579	     -5.15755728	      6.80271618	      0.11872980	     27.03572774	     13.97392495	      0.00000000	     -0.29158696	      0.00476161	     -2.39632177	     -0.54150614	      0.00633294	     -2.54609188	     -0.47904822	      0.01157737	     -2.54609188	     -0.33325474	      0.01157737	     -2.09678155	     -0.27076765	      0.00970987	     -1.94701144	     -0.16661279	      0.00737573	     -1.79724133	     -2.08277649	      0.05386424	    -13.32762280	      0.00000000	      0.00000000	     16.43651769	      1.17240432	     10.11810621	     42.58993126	    -22.77575154	     25.80044563	    117.85116195	     84.90100117	     -3.46151524	     32.35247703	     -6.77431824	    -11.13206206	      7.84318415	    122.73744415	     83.08032145	     -8.88818431	     15.05498880
      4.78333333	     -2.79081638	    -19.14459064	     90.63269058	      0.27466693	      0.88892071	      0.61115392	     14.62956881	      2.21038827	     -5.34846124	     12.05124649	      0.21033393	     31.03304230	     -6.50596197	      0.00000000	     11.36571381	     -3.59640076	     -5.44073885	      6.94781795	      0.12126230	     27.02889727	     14.31443775	      0.00000000	     -0.29219773	      0.02480212	     -2.23580179	     -0.54264041	      0.03298682	     -2.37553940	     -0.48005165	      0.06030388	     -2.37553940	     -0.33395279	      0.06030388	     -1.95632656	     -0.27133481	      0.05057648	     -1.81658895	     -0.16696178	      0.03841848	     -1.67685134	     -2.08713917	      0.28056654	    -12.43485880	      0.00000000	      0.00000000	     16.66371965	      1.47974892	      9.20865150	     41.83580544	    -26.38934092	     26.68458583	    120.69304156	     82.41572486	      1.33567791	     33.11637733	     -7.60052505	    -11.00668022	      7.76976864	    124.74776601	     84.13995782	     -7.32763070	     14.15290232
      4.80000000	     -2.59484633	    -19.37386937	     90.83669206	      0.27462498	      0.88814390	      0.61109737	     14.89844176	      2.38425340	     -5.41273794	     12.18159215	      0.21260889	     31.19412100	     -6.93225418	      0.00000000	     11.65491747	     -3.77954710	     -5.49139325	      7.05015076	      0.12304834	     27.17691102	     14.48593652	      0.00000000	     -0.29759434	      0.04462489	     -2.00857142	     -0.55266245	      0.05935111	     -2.13410713	     -0.48891774	      0.10850097	     -2.13410713	     -0.34012057	      0.10850097	     -1.75749999	     -0.27634611	      0.09099908	     -1.63196428	     -0.17004541	      0.06912396	     -1.50642857	     -2.12568662	      0.50480572	    -11.17107167	      0.00000000	      0.00000000	     17.01190140	      1.51343289	      8.19054219	     42.41641271	    -30.16886695	     27.63040256	    123.31685813	     77.19124539	      9.15002054	     33.54051056	     -8.12725320	    -10.88909208	      7.50627331	    126.76359082	     84.67549117	     -3.72812795	     14.94487658
      4.81666667	     -2.32720637	    -19.55522792	     91.10536331	      0.27434106	      0.88734323	      0.61096864	     15.07023104	      2.61972712	     -5.52754974	     12.22715053	      0.21340403	     31.36004572	     -7.35702011	      0.00000000	     11.88199462	     -3.99697939	     -5.21883566	      7.07951303	      0.12356081	     27.42465083	     14.43624974	      0.00000000	     -0.30485729	      0.08086061	     -1.76469905	     -0.56615047	      0.10754462	     -1.87499274	     -0.50085003	      0.19660450	     -1.87499274	     -0.34842139	      0.19660450	     -1.54411167	     -0.28309048	      0.16489096	     -1.43381798	     -0.17419545	      0.12525309	     -1.32352429	     -2.17756511	      0.91471144	     -9.81472673	      0.00000000	      0.00000000	     17.37855554	      0.95569464	      6.87273055	     44.54969199	    -33.53667592	     29.23499719	    125.21639428	     67.79137210	     16.86508020	     33.63774605	     -8.38707027	    -10.12279934	      6.36626825	    128.36448191	     84.07698026	      3.64953330	     17.19683946
      4.83333333	     -2.18723908	    -19.75144244	     91.30302537	      0.27429963	      0.88654589	      0.61077653	     15.24713217	      2.74768436	     -5.60149754	     12.26309669	      0.21403141	     31.54881435	     -7.58331513	      0.00000000	     12.07528965	     -4.09979941	     -4.93573595	      7.01987600	      0.12251995	     27.62139256	     14.42241555	      0.00000000	     -0.31059850	      0.09940370	     -1.58156570	     -0.57681247	      0.13220692	     -1.68041356	     -0.51028227	      0.24169016	     -1.68041356	     -0.35498302	      0.24169016	     -1.38386999	     -0.28842177	      0.20270403	     -1.28502213	     -0.17747598	      0.15397634	     -1.18617428	     -2.21857402	      1.12447457	     -8.79619397	      0.00000000	      0.00000000	     17.73544287	      0.60980394	      5.72883085	     47.74249051	    -35.68959435	     31.65846095	    126.26167252	     53.55440409	     22.23677255	     33.54932665	     -8.58056172	     -9.42409928	      5.75900706	    129.91466174	     83.86552553	      7.34989152	     19.06242689
      4.85000000	     -1.98602005	    -20.01764141	     91.53137122	      0.27410138	      0.88578563	      0.61049428	     15.47861665	      2.92104324	     -5.78401356	     12.26259459	      0.21402265	     31.67892404	     -7.63912295	      0.00000000	     12.36137744	     -4.24587920	     -4.50247944	      7.00937588	      0.12233669	     27.82757051	     14.26179515	      0.00000000	     -0.31489915	      0.13268586	     -1.52914388	     -0.58479921	      0.17647220	     -1.62471538	     -0.51734781	      0.32261241	     -1.62471538	     -0.35989824	      0.32261241	     -1.33800090	     -0.29241535	      0.27057301	     -1.24242941	     -0.17993337	      0.20553040	     -1.14685791	     -2.24929313	      1.50096903	     -8.50463955	      0.00000000	      0.00000000	     18.26178002	      0.23214341	      5.43620015	     51.60680606	    -36.49469312	     34.66079869	    127.22462941	     38.34572704	     24.42510012	     33.38470413	     -8.85580592	     -8.00086425	      4.52205945	    131.06655509	     83.17706391	     11.51373691	     20.54944252
      4.86666667	     -1.74861364	    -20.33840289	     91.47678368	      0.27412253	      0.88519028	      0.61008340	     15.75485063	      3.19000747	     -5.75883386	     12.22145904	      0.21330470	     31.71180310	     -7.46895104	      0.00000000	     12.62277999	     -4.48172319	     -4.36043011	      6.94168827	      0.12115532	     27.95958377	     14.10374235	      0.00000000	     -0.31419998	      0.16669109	     -1.51658923	     -0.58350078	      0.22169915	     -1.61137605	     -0.51619915	      0.40529272	     -1.61137605	     -0.35909916	      0.40529272	     -1.32701557	     -0.29176610	      0.33991647	     -1.23222875	     -0.17953387	      0.25820450	     -1.13744192	     -2.24429904	      1.88564295	     -8.43481430	      0.00000000	      0.00000000	     18.73035889	     -0.32905379	      5.00434969	     55.00995231	    -35.76791802	     35.79034719	    128.19173719	     29.52132845	     27.47954209	     32.77987774	     -9.00900910	     -6.45446506	      4.03977461	    132.11375158	     83.51796627	     11.52041042	     21.35690463
